<svg height="48" width="48" xmlns="http://www.w3.org/2000/svg"><linearGradient id="b" gradientUnits="userSpaceOnUse" x1="36.918" x2="19.071" y1="66.288" y2="5.541"><stop offset="0" stop-color="#a40000"/><stop offset="1" stop-color="#ff1717"/></linearGradient><linearGradient id="c" gradientUnits="userSpaceOnUse" x1="43.936" x2="20.065" y1="53.836" y2="-8.563"><stop offset="0" stop-color="#ffe69b"/><stop offset="1" stop-color="#fff"/></linearGradient><linearGradient id="d" gradientUnits="userSpaceOnUse" x1="21.988" x2="20.908" y1="34.077" y2="15.882"><stop offset="0" stop-color="#fffeff" stop-opacity=".333"/><stop offset="1" stop-color="#fffeff" stop-opacity=".216"/></linearGradient><radialGradient id="a" cx="23.857" cy="40" gradientTransform="matrix(1 0 0 .5 0 20)" gradientUnits="userSpaceOnUse" r="17.143"><stop offset="0"/><stop offset="1" stop-opacity="0"/></radialGradient><path d="M41 40a17.143 8.571 0 11-34.286 0A17.143 8.571 0 1141 40z" display="block" fill="url(#a)" opacity=".6" transform="matrix(1.07055 0 0 .525 -.893 22.5)"/><path d="M46.857 23.929a23.357 23.357 0 11-46.714 0 23.357 23.357 0 1146.714 0z" fill="url(#b)" stroke="#b20000" stroke-width="1.086" transform="translate(2.369 .974) scale(.92049)"/><path d="M49.902 26.635a23.991 23.991 0 11-47.983 0 23.991 23.991 0 1147.983 0z" fill="none" opacity=".347" stroke="url(#c)" stroke-width="1.168" transform="translate(1.818 .198) scale(.8561)"/><g fill="#efefef"><path d="M11.98 30.778L31.777 10.98l4.243 4.243-19.8 19.799z"/><path d="M16.222 10.98L36.02 30.777l-4.243 4.243-19.799-19.8z"/></g><path d="M43.429 21.8c0 10.863-10.386-6.285-18.731.388-8.15 6.517-20.659 12.227-20.659 1.364 0-11.118 8.722-21.431 19.585-21.431s19.805 8.816 19.805 19.68z" fill="url(#d)"/></svg>