<svg xmlns="http://www.w3.org/2000/svg" width="800" height="800" viewBox="0 0 512 512"><circle cx="256" cy="256" r="256" fill="#e03a00"/><path fill="#940030" d="M275.894 511.236c124.9-9.6 224.685-108.834 235.177-233.482L383.495 150.178l-21.673 48.933-50.081 15.515-173.884 158.572z"/><path fill="#ffedb5" d="M373.734 247.62c30.915-30.915 30.18-81.494-2.205-111.475-29.217-27.048-74.976-27.264-104.429-.474-21.02 19.118-28.967 46.821-23.866 72.444L137.106 314.244l-1.164 53.131c-.117 5.325 4.274 9.65 9.597 9.454l39.579-1.465c6.847-.253 12.06-6.234 11.38-13.052l-.691-6.911a9.31 9.31 0 0 1 7.08-9.976l25.031-6.042a11.876 11.876 0 0 0 8.759-8.759l6.609-27.384a9.308 9.308 0 0 1 6.866-6.866l27.388-6.611a11.876 11.876 0 0 0 8.759-8.759l3.934-16.293c27.867 11.176 60.927 5.484 83.501-17.091m-18.432-90.922c8.694 8.694 8.694 22.788 0 31.48-8.694 8.694-22.788 8.694-31.48 0-8.694-8.694-8.694-22.788 0-31.48 8.692-8.694 22.786-8.694 31.48 0"/><path fill="#fde085" d="m375.691 140.331-18.522 18.522c6.751 8.73 6.141 21.316-1.869 29.327-8.009 8.011-20.596 8.62-29.327 1.869L140.488 375.534a9.18 9.18 0 0 0 5.053 1.293l39.579-1.465c6.847-.253 12.06-6.234 11.38-13.052l-.691-6.911a9.31 9.31 0 0 1 7.08-9.976l25.031-6.042a11.874 11.874 0 0 0 8.759-8.759l6.609-27.384a9.308 9.308 0 0 1 6.866-6.866l27.388-6.611a11.877 11.877 0 0 0 8.759-8.759l3.934-16.293c27.869 11.178 60.928 5.487 83.503-17.089 29.518-29.524 30.156-76.964 1.953-107.289"/><path fill="#ffc61b" d="M160.265 331.912a5.17 5.17 0 0 1-3.656-8.828l96.858-96.858a5.17 5.17 0 0 1 7.313 0 5.17 5.17 0 0 1 0 7.313l-96.858 96.858a5.16 5.16 0 0 1-3.657 1.515"/></svg>