<svg height="48" width="48" xmlns="http://www.w3.org/2000/svg"><linearGradient id="b" gradientUnits="userSpaceOnUse" x1="4.19" x2="47.32" y1="11.11" y2="56.05"><stop offset="0" stop-color="#d4d4d4"/><stop offset=".398" stop-color="#e2e2e2"/><stop offset="1" stop-color="#fff"/></linearGradient><radialGradient id="a" cx="23.86" cy="40" gradientTransform="matrix(1 0 0 .5 0 20)" gradientUnits="userSpaceOnUse" r="17.14"><stop offset="0"/><stop offset="1" stop-opacity="0"/></radialGradient><linearGradient id="c" gradientTransform="matrix(.89901 0 0 .93424 1.88 1.19)" gradientUnits="userSpaceOnUse" x1="8.55" x2="30.85" y1="30.28" y2="48.3"><stop offset="0" stop-color="#fff"/><stop offset="1" stop-color="#fff" stop-opacity=".34"/></linearGradient><path d="M41 40a17.143 8.571 0 11-34.286 0A17.143 8.571 0 1141 40z" display="block" fill="url(#a)" opacity=".62" transform="translate(-1.488 -6.544) scale(1.07055)"/><path d="M47.486 45h-47V-2.002h47z" fill="none"/><path d="M43.213 36.593L26.176 4.868c-.49-.88-1.371-1.37-2.35-1.37s-1.86.587-2.35 1.468L4.83 36.691c-.392.784-.392 1.86.098 2.644S6.2 40.51 7.18 40.51h33.683c.98 0 1.86-.49 2.252-1.273.49-.783.49-1.762.098-2.644z" fill="#c00" stroke="#9f0000"/><path d="M9.5 37.6c-.3.5 0 .9.5.9h28.2c.5 0 .8-.4.5-.9L24.4 11c-.3-.5-.7-.5-.9 0z" fill="url(#b)" transform="matrix(.97917 0 0 .99366 .329 -1.265)"/><path d="M23.722 33.676c-1.13 0-2-.869-2-1.999 0-1.217.783-2 2-2s1.912.783 1.999 2c0 1.13-.782 2-2 2zm-1.217-5.128l-.522-9.997h3.477l-.521 9.997h-2.521z"/><path d="M32.323 38.184L22.15 19.266c-.433-.815-.588-1.077-1.242-1.077-.561 0-.854.381-1.257 1.15L9.75 38.242c-.575 1.062-.636 1.338-.355 1.805.28.467.639.442 1.962.473h19.619c1.232.015 1.51-.08 1.734-.546.28-.467.159-.838-.386-1.79z" fill="none" opacity=".5" stroke="url(#c)" stroke-width=".638" transform="translate(-8.93 -23.95) scale(1.56667)"/></svg>